<svg xmlns="http://www.w3.org/2000/svg" width="400" height="130" viewBox="0 0 400 130">
  <rect width="400" height="130" rx="10" fill="#0A0E14" stroke="#1B2430" stroke-width="1"/>
  <g transform="translate(25, 20)">
    <path fill="#7D8590" d="M2 2.5A2.5 2.5 0 014.5 0h8.75a.75.75 0 01.75.75v12.5a.75.75 0 01-.75.75h-2.5a.75.75 0 110-1.5h1.75v-2h-8a1 1 0 00-.714 1.7.75.75 0 01-1.072 1.05A2.495 2.495 0 012 11.5v-9zm10.5-1h-8a1 1 0 00-1 1v6.708A2.486 2.486 0 014.5 9h8.5V1.5z"/>
    <text x="22" y="13" fill="#2ECC71" font-size="14" font-weight="600" font-family="'Segoe UI',Ubuntu,sans-serif">ImageLoader</text>
  </g>
  <text x="25" y="62" fill="#7D8590" font-size="12" font-family='Segoe UI',Ubuntu,sans-serif">Custom image loading library written in Kotlin</text>

  <g transform="translate(25, 108)">
    <circle cx="5" cy="0" r="5" fill="#A97BFF"/>
    <text x="15" y="4" fill="#7D8590" font-size="12" font-family="'Segoe UI',Ubuntu,sans-serif">Kotlin</text>
    <g transform="translate(90, -8)">
      <path fill="#7D8590" d="M8 .25a.75.75 0 01.673.418l1.882 3.815 4.21.612a.75.75 0 01.416 1.279l-3.046 2.97.719 4.192a.75.75 0 01-1.088.791L8 12.347l-3.766 1.98a.75.75 0 01-1.088-.79l.72-4.194L.818 6.374a.75.75 0 01.416-1.28l4.21-.611L7.327.668A.75.75 0 018 .25z"/>
      <text x="20" y="12" fill="#7D8590" font-size="12" font-family="'Segoe UI',Ubuntu,sans-serif">1</text>
    </g>
    <g transform="translate(140, -8)">
      <path fill="#7D8590" d="M5 3.25a.75.75 0 11-1.5 0 .75.75 0 011.5 0zm0 2.122a2.25 2.25 0 10-1.5 0v.878A2.25 2.25 0 005.75 8.5h1.5v2.128a2.251 2.251 0 101.5 0V8.5h1.5a2.25 2.25 0 002.25-2.25v-.878a2.25 2.25 0 10-1.5 0v.878a.75.75 0 01-.75.75h-4.5A.75.75 0 015 6.25v-.878zm3.75 7.378a.75.75 0 11-1.5 0 .75.75 0 011.5 0zm3-8.75a.75.75 0 100-1.5.75.75 0 000 1.5z"/>
      <text x="20" y="12" fill="#7D8590" font-size="12" font-family="'Segoe UI',Ubuntu,sans-serif">0</text>
    </g>
  </g>
</svg>