<svg xmlns="http://www.w3.org/2000/svg" width="460" height="195" viewBox="0 0 460 195">
  <rect width="460" height="195" rx="10" fill="#0A0E14" stroke="#1B2430" stroke-width="1"/>
  <text x="25" y="36" fill="#2ECC71" font-size="18" font-weight="600" font-family="'Segoe UI',Ubuntu,sans-serif">GitHub Stats</text>
  <text x="435" y="36" fill="#7D8590" font-size="13" font-family="'Segoe UI',Ubuntu,sans-serif" text-anchor="end">jasi381</text>
  
    <g transform="translate(25, 60)">
      <path fill="#F0A500" d="M8 .25a.75.75 0 01.673.418l1.882 3.815 4.21.612a.75.75 0 01.416 1.279l-3.046 2.97.719 4.192a.75.75 0 01-1.088.791L8 12.347l-3.766 1.98a.75.75 0 01-1.088-.79l.72-4.194L.818 6.374a.75.75 0 01.416-1.28l4.21-.611L7.327.668A.75.75 0 018 .25z"/>
      <text x="28" y="13" fill="#7D8590" font-size="14" font-family="'Segoe UI',Ubuntu,sans-serif">Total Stars</text>
      <text x="425" y="13" fill="#E6EDF3" font-size="14" font-weight="600" font-family="'Segoe UI',Ubuntu,sans-serif" text-anchor="end">14</text>
    </g>
    <g transform="translate(25, 92)">
      <path fill="#F0A500" d="M2 2.5A2.5 2.5 0 014.5 0h8.75a.75.75 0 01.75.75v12.5a.75.75 0 01-.75.75h-2.5a.75.75 0 110-1.5h1.75v-2h-8a1 1 0 00-.714 1.7.75.75 0 01-1.072 1.05A2.495 2.495 0 012 11.5v-9zm10.5-1h-8a1 1 0 00-1 1v6.708A2.486 2.486 0 014.5 9h8.5V1.5z"/>
      <text x="28" y="13" fill="#7D8590" font-size="14" font-family="'Segoe UI',Ubuntu,sans-serif">Public Repos</text>
      <text x="425" y="13" fill="#E6EDF3" font-size="14" font-weight="600" font-family="'Segoe UI',Ubuntu,sans-serif" text-anchor="end">24</text>
    </g>
    <g transform="translate(25, 124)">
      <path fill="#F0A500" d="M5 3.25a.75.75 0 11-1.5 0 .75.75 0 011.5 0zm0 2.122a2.25 2.25 0 10-1.5 0v.878A2.25 2.25 0 005.75 8.5h1.5v2.128a2.251 2.251 0 101.5 0V8.5h1.5a2.25 2.25 0 002.25-2.25v-.878a2.25 2.25 0 10-1.5 0v.878a.75.75 0 01-.75.75h-4.5A.75.75 0 015 6.25v-.878zm3.75 7.378a.75.75 0 11-1.5 0 .75.75 0 011.5 0zm3-8.75a.75.75 0 100-1.5.75.75 0 000 1.5z"/>
      <text x="28" y="13" fill="#7D8590" font-size="14" font-family="'Segoe UI',Ubuntu,sans-serif">Total Forks</text>
      <text x="425" y="13" fill="#E6EDF3" font-size="14" font-weight="600" font-family="'Segoe UI',Ubuntu,sans-serif" text-anchor="end">5</text>
    </g>
    <g transform="translate(25, 156)">
      <path fill="#F0A500" d="M2 5.5a3.5 3.5 0 115.898 2.549 5.507 5.507 0 013.034 4.084.75.75 0 11-1.482.235 4.001 4.001 0 00-7.9 0 .75.75 0 01-1.482-.236A5.507 5.507 0 013.102 8.05 3.49 3.49 0 012 5.5zM11 4a.75.75 0 100 1.5 1.5 1.5 0 01.666 2.844.75.75 0 00-.416.672v.352a.75.75 0 00.574.73c1.2.289 2.162 1.2 2.522 2.372a.75.75 0 101.434-.44 5.01 5.01 0 00-2.56-3.012A3 3 0 0011 4z"/>
      <text x="28" y="13" fill="#7D8590" font-size="14" font-family="'Segoe UI',Ubuntu,sans-serif">Followers</text>
      <text x="425" y="13" fill="#E6EDF3" font-size="14" font-weight="600" font-family="'Segoe UI',Ubuntu,sans-serif" text-anchor="end">9</text>
    </g>
</svg>