<svg xmlns="http://www.w3.org/2000/svg" width="460" height="175" viewBox="0 0 460 175">
  <rect width="460" height="175" rx="10" fill="#0A0E14" stroke="#1B2430" stroke-width="1"/>
  <text x="25" y="36" fill="#2ECC71" font-size="18" font-weight="600" font-family="'Segoe UI',Ubuntu,sans-serif">Most Used Languages</text>
  <rect x="25" y="55" width="410" height="8" rx="4" fill="#1B2430"/>
    <rect x="25" y="55" width="365.3797425588702" height="8" rx="1.5" fill="#A97BFF"/>
    <rect x="390.3797425588702" y="55" width="21.328930031419983" height="8" rx="1.5" fill="#E34C26"/>
    <rect x="411.7086725902902" y="55" width="5.521301395317409" height="8" rx="1.5" fill="#F34B7D"/>
    <rect x="417.2299739856076" y="55" width="4.743572417987093" height="8" rx="1.5" fill="#3572A5"/>
    <rect x="421.9735464035947" y="55" width="4.476840433798439" height="8" rx="1.5" fill="#8B8B8B"/>
    <rect x="426.4503868373931" y="55" width="4.256055947836074" height="8" rx="1.5" fill="#F1E05A"/>

    <g transform="translate(25, 89)">
      <circle cx="6" cy="6" r="6" fill="#A97BFF"/>
      <text x="18" y="10" fill="#7D8590" font-size="12" font-family="'Segoe UI',Ubuntu,sans-serif">Kotlin</text>
      <text x="130" y="10" fill="#E6EDF3" font-size="12" font-weight="600" font-family="'Segoe UI',Ubuntu,sans-serif">89.1%</text>
    </g>
    <g transform="translate(230, 89)">
      <circle cx="6" cy="6" r="6" fill="#E34C26"/>
      <text x="18" y="10" fill="#7D8590" font-size="12" font-family="'Segoe UI',Ubuntu,sans-serif">HTML</text>
      <text x="130" y="10" fill="#E6EDF3" font-size="12" font-weight="600" font-family="'Segoe UI',Ubuntu,sans-serif">5.2%</text>
    </g>
    <g transform="translate(25, 117)">
      <circle cx="6" cy="6" r="6" fill="#F34B7D"/>
      <text x="18" y="10" fill="#7D8590" font-size="12" font-family="'Segoe UI',Ubuntu,sans-serif">C++</text>
      <text x="130" y="10" fill="#E6EDF3" font-size="12" font-weight="600" font-family="'Segoe UI',Ubuntu,sans-serif">1.3%</text>
    </g>
    <g transform="translate(230, 117)">
      <circle cx="6" cy="6" r="6" fill="#3572A5"/>
      <text x="18" y="10" fill="#7D8590" font-size="12" font-family="'Segoe UI',Ubuntu,sans-serif">Python</text>
      <text x="130" y="10" fill="#E6EDF3" font-size="12" font-weight="600" font-family="'Segoe UI',Ubuntu,sans-serif">1.2%</text>
    </g>
    <g transform="translate(25, 145)">
      <circle cx="6" cy="6" r="6" fill="#8B8B8B"/>
      <text x="18" y="10" fill="#7D8590" font-size="12" font-family="'Segoe UI',Ubuntu,sans-serif">C</text>
      <text x="130" y="10" fill="#E6EDF3" font-size="12" font-weight="600" font-family="'Segoe UI',Ubuntu,sans-serif">1.1%</text>
    </g>
    <g transform="translate(230, 145)">
      <circle cx="6" cy="6" r="6" fill="#F1E05A"/>
      <text x="18" y="10" fill="#7D8590" font-size="12" font-family="'Segoe UI',Ubuntu,sans-serif">JavaScript</text>
      <text x="130" y="10" fill="#E6EDF3" font-size="12" font-weight="600" font-family="'Segoe UI',Ubuntu,sans-serif">1.0%</text>
    </g>

</svg>