<svg xmlns="http://www.w3.org/2000/svg" width="460" height="179" viewBox="0 0 460 179">
  <rect width="460" height="179" rx="10" fill="#0A0E14" stroke="#1B2430" stroke-width="1"/>
  <text x="25" y="36" fill="#2ECC71" font-size="18" font-weight="600" font-family="'Segoe UI',Ubuntu,sans-serif">Most Used Languages</text>
  <rect x="25" y="55" width="410" height="8" rx="4" fill="#1B2430"/>
    <rect x="25" y="55" width="287.85164540610367" height="8" rx="1.5" fill="#A97BFF"/>
    <rect x="312.85164540610367" y="55" width="59.879993541094784" height="8" rx="1.5" fill="#8B8B8B"/>
    <rect x="372.73163894719846" y="55" width="32.6585887292104" height="8" rx="1.5" fill="#3572A5"/>
    <rect x="405.39022767640887" y="55" width="14.786746326497658" height="8" rx="1.5" fill="#E34C26"/>
    <rect x="420.17697400290655" y="55" width="9.14512514128855" height="8" rx="1.5" fill="#F1E05A"/>
    <rect x="429.3220991441951" y="55" width="4.773822057161311" height="8" rx="1.5" fill="#8B8B8B"/>

    <g transform="translate(25, 89)">
      <circle cx="6" cy="6" r="6" fill="#A97BFF"/>
      <text x="18" y="10" fill="#7D8590" font-size="12" font-family="'Segoe UI',Ubuntu,sans-serif">Kotlin</text>
      <text x="130" y="10" fill="#E6EDF3" font-size="12" font-weight="600" font-family="'Segoe UI',Ubuntu,sans-serif">70.2%</text>
    </g>
    <g transform="translate(230, 89)">
      <circle cx="6" cy="6" r="6" fill="#8B8B8B"/>
      <text x="18" y="10" fill="#7D8590" font-size="12" font-family="'Segoe UI',Ubuntu,sans-serif">TypeScript</text>
      <text x="130" y="10" fill="#E6EDF3" font-size="12" font-weight="600" font-family="'Segoe UI',Ubuntu,sans-serif">14.6%</text>
    </g>
    <g transform="translate(25, 117)">
      <circle cx="6" cy="6" r="6" fill="#3572A5"/>
      <text x="18" y="10" fill="#7D8590" font-size="12" font-family="'Segoe UI',Ubuntu,sans-serif">Python</text>
      <text x="130" y="10" fill="#E6EDF3" font-size="12" font-weight="600" font-family="'Segoe UI',Ubuntu,sans-serif">8.0%</text>
    </g>
    <g transform="translate(230, 117)">
      <circle cx="6" cy="6" r="6" fill="#E34C26"/>
      <text x="18" y="10" fill="#7D8590" font-size="12" font-family="'Segoe UI',Ubuntu,sans-serif">HTML</text>
      <text x="130" y="10" fill="#E6EDF3" font-size="12" font-weight="600" font-family="'Segoe UI',Ubuntu,sans-serif">3.6%</text>
    </g>
    <g transform="translate(25, 145)">
      <circle cx="6" cy="6" r="6" fill="#F1E05A"/>
      <text x="18" y="10" fill="#7D8590" font-size="12" font-family="'Segoe UI',Ubuntu,sans-serif">JavaScript</text>
      <text x="130" y="10" fill="#E6EDF3" font-size="12" font-weight="600" font-family="'Segoe UI',Ubuntu,sans-serif">2.2%</text>
    </g>
    <g transform="translate(230, 145)">
      <circle cx="6" cy="6" r="6" fill="#8B8B8B"/>
      <text x="18" y="10" fill="#7D8590" font-size="12" font-family="'Segoe UI',Ubuntu,sans-serif">CSS</text>
      <text x="130" y="10" fill="#E6EDF3" font-size="12" font-weight="600" font-family="'Segoe UI',Ubuntu,sans-serif">1.2%</text>
    </g>

</svg>