<svg xmlns="http://www.w3.org/2000/svg" width="460" height="179" viewBox="0 0 460 179">
  <rect width="460" height="179" rx="10" fill="#0A0E14" stroke="#1B2430" stroke-width="1"/>
  <text x="25" y="36" fill="#2ECC71" font-size="18" font-weight="600" font-family="'Segoe UI',Ubuntu,sans-serif">Most Used Languages</text>
  <rect x="25" y="55" width="410" height="8" rx="4" fill="#1B2430"/>
    <rect x="25" y="55" width="343.6588161918893" height="8" rx="1.5" fill="#A97BFF"/>
    <rect x="368.6588161918893" y="55" width="18.997981244432317" height="8" rx="1.5" fill="#E34C26"/>
    <rect x="387.6567974363216" y="55" width="15.876446512388902" height="8" rx="1.5" fill="#8B8B8B"/>
    <rect x="403.5332439487105" y="55" width="6.6626281902545905" height="8" rx="1.5" fill="#F1E05A"/>
    <rect x="410.19587213896506" y="55" width="6.564825147967869" height="8" rx="1.5" fill="#3572A5"/>
    <rect x="416.76069728693295" y="55" width="5.900981433023251" height="8" rx="1.5" fill="#00B4AB"/>

    <g transform="translate(25, 89)">
      <circle cx="6" cy="6" r="6" fill="#A97BFF"/>
      <text x="18" y="10" fill="#7D8590" font-size="12" font-family="'Segoe UI',Ubuntu,sans-serif">Kotlin</text>
      <text x="130" y="10" fill="#E6EDF3" font-size="12" font-weight="600" font-family="'Segoe UI',Ubuntu,sans-serif">83.8%</text>
    </g>
    <g transform="translate(230, 89)">
      <circle cx="6" cy="6" r="6" fill="#E34C26"/>
      <text x="18" y="10" fill="#7D8590" font-size="12" font-family="'Segoe UI',Ubuntu,sans-serif">HTML</text>
      <text x="130" y="10" fill="#E6EDF3" font-size="12" font-weight="600" font-family="'Segoe UI',Ubuntu,sans-serif">4.6%</text>
    </g>
    <g transform="translate(25, 117)">
      <circle cx="6" cy="6" r="6" fill="#8B8B8B"/>
      <text x="18" y="10" fill="#7D8590" font-size="12" font-family="'Segoe UI',Ubuntu,sans-serif">TypeScript</text>
      <text x="130" y="10" fill="#E6EDF3" font-size="12" font-weight="600" font-family="'Segoe UI',Ubuntu,sans-serif">3.9%</text>
    </g>
    <g transform="translate(230, 117)">
      <circle cx="6" cy="6" r="6" fill="#F1E05A"/>
      <text x="18" y="10" fill="#7D8590" font-size="12" font-family="'Segoe UI',Ubuntu,sans-serif">JavaScript</text>
      <text x="130" y="10" fill="#E6EDF3" font-size="12" font-weight="600" font-family="'Segoe UI',Ubuntu,sans-serif">1.6%</text>
    </g>
    <g transform="translate(25, 145)">
      <circle cx="6" cy="6" r="6" fill="#3572A5"/>
      <text x="18" y="10" fill="#7D8590" font-size="12" font-family="'Segoe UI',Ubuntu,sans-serif">Python</text>
      <text x="130" y="10" fill="#E6EDF3" font-size="12" font-weight="600" font-family="'Segoe UI',Ubuntu,sans-serif">1.6%</text>
    </g>
    <g transform="translate(230, 145)">
      <circle cx="6" cy="6" r="6" fill="#00B4AB"/>
      <text x="18" y="10" fill="#7D8590" font-size="12" font-family="'Segoe UI',Ubuntu,sans-serif">Dart</text>
      <text x="130" y="10" fill="#E6EDF3" font-size="12" font-weight="600" font-family="'Segoe UI',Ubuntu,sans-serif">1.4%</text>
    </g>

</svg>